<!-- icon666.com - MILLIONS vector ICONS FREE --><svg version="1.1" id="Layer_1" xmlns="http://www.w3.org/2000/svg" xmlns:xlink="http://www.w3.org/1999/xlink" x="0px" y="0px" viewBox="0 0 512 512" style="enable-background:new 0 0 512 512;" xml:space="preserve"><path style="fill:#FFFFFF;" d="M256,508C117.04,508,4,394.944,4,256S117.04,4,256,4s252,113.04,252,252S394.96,508,256,508z"></path><path style="fill:#D6D6D6;" d="M256,8c136.752,0,248,111.248,248,248S392.752,504,256,504S8,392.752,8,256S119.248,8,256,8 M256,0 C114.608,0,0,114.608,0,256s114.608,256,256,256s256-114.608,256-256S397.392,0,256,0L256,0z"></path><g><polygon style="fill:#0BA4E0;" points="319.632,222.768 256,137.264 192.368,222.768 179.536,213.2 256,110.448 332.464,213.2 "></polygon><rect x="248" y="123.856" style="fill:#0BA4E0;" width="16" height="277.696"></rect></g></svg>